HIERARCHY
ROOT Hips
{
	OFFSET 0.000000 0.000000 0.000000
	CHANNELS 6 Xposition Yposition Zposition Zrotation Yrotation Xrotation 
	JOINT LHipJoint
	{
		OFFSET 0.000000 0.000000 0.000000
		CHANNELS 3 Zrotation Yrotation Xrotation
		JOINT LeftUpLeg
		{
			OFFSET 1.363060 -1.794630 0.839290
			CHANNELS 3 Zrotation Yrotation Xrotation
			JOINT LeftLeg
			{
				OFFSET 2.448110 -6.726130 0.000000
				CHANNELS 3 Zrotation Yrotation Xrotation
				JOINT LeftFoot
				{
					OFFSET 2.562200 -7.039590 0.000000
					CHANNELS 3 Zrotation Yrotation Xrotation
					JOINT LeftToeBase
					{
						OFFSET 0.157640 -0.433110 2.322550
						CHANNELS 3 Zrotation Yrotation Xrotation
						End Site
						{
							OFFSET 0.000000 0.000000 0.000000
						}
					}
				}
			}
		}
	}
	JOINT RHipJoint
	{
		OFFSET 0.000000 0.000000 0.000000
		CHANNELS 3 Zrotation Yrotation Xrotation
		JOINT RightUpLeg
		{
			OFFSET -1.305520 -1.794630 0.839290
			CHANNELS 3 Zrotation Yrotation Xrotation
			JOINT RightLeg
			{
				OFFSET -2.542530 -6.985550 0.000000
				CHANNELS 3 Zrotation Yrotation Xrotation
				JOINT RightFoot
				{
					OFFSET -2.568260 -7.056230 0.000000
					CHANNELS 3 Zrotation Yrotation Xrotation
					JOINT RightToeBase
					{
						OFFSET -0.164730 -0.452590 2.363150
						CHANNELS 3 Zrotation Yrotation Xrotation
						End Site
						{
							OFFSET 0.000000 0.000000 0.000000
						}
					}
				}
			}
		}
	}
	JOINT LowerBack
	{
		OFFSET 0.000000 0.000000 0.000000
		CHANNELS 3 Zrotation Yrotation Xrotation
		JOINT Spine
		{
			OFFSET 0.028270 2.035590 -0.193380
			CHANNELS 3 Zrotation Yrotation Xrotation
			JOINT Spine1
			{
				OFFSET 0.056720 2.048850 -0.042750
				CHANNELS 3 Zrotation Yrotation Xrotation
				JOINT Neck
				{
					OFFSET 0.000000 0.000000 0.000000
					CHANNELS 3 Zrotation Yrotation Xrotation
					JOINT Neck1
					{
						OFFSET -0.054170 1.746240 0.172020
						CHANNELS 3 Zrotation Yrotation Xrotation
						JOINT Head
						{
							OFFSET 0.104070 1.761360 -0.123970
							CHANNELS 3 Zrotation Yrotation Xrotation
							End Site
							{
								OFFSET 0.000000 0.000000 0.000000
							}
						}
					}
				}
				JOINT LeftShoulder
				{
					OFFSET 0.000000 0.000000 0.000000
					CHANNELS 3 Zrotation Yrotation Xrotation
					JOINT LeftArm
					{
						OFFSET 3.362410 1.200890 -0.311210
						CHANNELS 3 Zrotation Yrotation Xrotation
						JOINT LeftForeArm
						{
							OFFSET 4.983000 -0.000000 -0.000000
							CHANNELS 3 Zrotation Yrotation Xrotation
							JOINT LeftHand
							{
								OFFSET 3.483560 -0.000000 -0.000000
								CHANNELS 3 Zrotation Yrotation Xrotation
								JOINT LeftFingerBase
								{
									OFFSET 0.000000 0.000000 0.000000
									CHANNELS 3 Zrotation Yrotation Xrotation
									JOINT LeftHandIndex1
									{
										OFFSET 0.715260 -0.000000 -0.000000
										CHANNELS 3 Zrotation Yrotation Xrotation
										End Site
										{
											OFFSET 0.000000 0.000000 0.000000
										}
									}
								}
								JOINT LThumb
								{
									OFFSET 0.000000 0.000000 0.000000
									CHANNELS 3 Zrotation Yrotation Xrotation
									End Site
									{
										OFFSET 0.000000 0.000000 0.000000
									}
								}
							}
						}
					}
				}
				JOINT RightShoulder
				{
					OFFSET 0.000000 0.000000 0.000000
					CHANNELS 3 Zrotation Yrotation Xrotation
					JOINT RightArm
					{
						OFFSET -3.136600 1.374050 -0.404650
						CHANNELS 3 Zrotation Yrotation Xrotation
						JOINT RightForeArm
						{
							OFFSET -5.241900 -0.000000 -0.000000
							CHANNELS 3 Zrotation Yrotation Xrotation
							JOINT RightHand
							{
								OFFSET -3.444170 -0.000000 -0.000000
								CHANNELS 3 Zrotation Yrotation Xrotation
								JOINT RightFingerBase
								{
									OFFSET 0.000000 0.000000 0.000000
									CHANNELS 3 Zrotation Yrotation Xrotation
									JOINT RightHandIndex1
									{
										OFFSET -0.622530 -0.000000 -0.000000
										CHANNELS 3 Zrotation Yrotation Xrotation
										End Site
										{
											OFFSET 0.000000 0.000000 0.000000
										}
									}
								}
								JOINT RThumb
								{
									OFFSET 0.000000 0.000000 0.000000
									CHANNELS 3 Zrotation Yrotation Xrotation
									End Site
									{
										OFFSET 0.000000 0.000000 0.000000
									}
								}
							}
						}
					}
				}
			}
		}
	}
}
MOTION
Frames: 4
Frame Time: 0.008333
0.532489 17.958404 -0.698954 2.989135 -6.021922 4.838322 -1.691602 2.695751 2.158492 -21.750367 -2.214424 -9.350284 -0.347702 5.441302 18.434903 -2.478866 12.153566 -6.206402 0.668000 -5.226600 -14.556100 0.592570 -3.134810 2.053859 10.318129 7.880680 -12.729884 -1.277126 -8.775340 26.707539 0.629797 -6.340339 -12.889272 -0.007000 0.538800 -1.480500 -5.020610 -0.674971 -2.067519 0.911861 -1.420932 -2.061347 4.697119 -0.204457 -0.996176 -12.384395 -9.172448 -18.737351 6.972851 -9.819837 16.514578 3.274000 -4.754300 12.926500 -10.774277 -0.154623 -1.831926 -76.880126 1.451738 17.132621 10.682734 -21.122382 -2.271774 0.015764 -1.520953 6.443464 11.929601 24.878281 5.293800 -7.125000 0.000000 0.000000 -19.636000 55.806400 -5.354500 9.533258 2.006073 -1.340064 73.472018 -1.948701 8.942212 -15.325511 22.056245 -3.868617 1.631890 -0.730391 16.400997 -35.614028 -3.803999 2.618000 7.125000 0.000000 0.000000 -8.854500 -34.190300 -2.372300 
0.532990 17.957903 -0.697751 2.939089 -5.949695 4.756746 -1.689779 2.703872 2.164487 -21.692700 -2.118453 -9.313362 -0.341421 5.448621 18.459533 -2.458813 12.058544 -6.118755 0.684800 -5.290900 -14.740000 0.593170 -3.142454 2.060005 10.389588 7.839770 -12.620604 -1.278483 -8.772419 26.711730 0.616704 -6.299533 -12.935055 -0.004400 0.429400 -1.180000 -4.996791 -0.661247 -1.965237 0.930889 -1.405964 -2.027935 4.707745 -0.197879 -1.011078 -12.357754 -9.010515 -18.748992 6.986983 -9.588068 16.334174 3.317600 -4.651200 12.831500 -10.766228 -0.161046 -1.828574 -76.897155 1.327532 16.652485 10.726378 -21.198676 -2.318987 -0.076068 -1.435592 8.033407 13.116211 22.052672 5.267700 -7.125000 0.000000 0.000000 -16.800500 53.272800 -3.496500 9.527125 2.002201 -1.343916 73.398816 -2.000456 8.872100 -15.470366 22.242423 -3.932774 1.646435 -0.711011 15.767784 -35.806911 -3.785207 2.624300 7.125000 0.000000 0.000000 -9.016400 -34.177400 -2.419500 
0.532789 17.955496 -0.695444 2.976069 -5.917502 4.688451 -1.688386 2.710230 2.167561 -21.734032 -2.117817 -9.212217 -0.344206 5.434991 18.429934 -2.456907 12.052970 -6.120108 0.694000 -5.325300 -14.838800 0.589232 -3.149152 2.064403 10.359545 7.806834 -12.554658 -1.281637 -8.777786 26.727002 0.620564 -6.322673 -12.955074 -0.005900 0.498000 -1.368500 -5.070550 -0.646071 -1.911263 0.942721 -1.387126 -1.987249 4.761038 -0.190686 -0.985223 -12.373338 -8.868395 -18.943012 6.937897 -9.348438 16.316587 3.341000 -4.551200 12.832400 -10.757578 -0.170301 -1.825709 -76.934265 1.183033 16.413006 10.774151 -21.272347 -2.352833 -0.114459 -1.391253 8.761316 13.586019 20.659701 5.160200 -7.125000 0.000000 0.000000 -15.639800 51.969700 -2.739200 9.524915 1.995980 -1.348545 73.298683 -1.992066 8.882748 -15.616780 22.427736 -3.996194 1.661243 -0.684089 15.035218 -35.913464 -3.818967 2.666200 7.125000 0.000000 0.000000 -9.111400 -34.232300 -2.433300 
0.535597 17.955998 -0.692737 3.064378 -5.861092 4.672357 -1.685070 2.707200 2.161038 -21.845370 -2.140905 -9.183925 -0.343563 5.432238 18.428352 -2.456168 12.053235 -6.102208 0.713800 -5.399400 -15.051200 0.583716 -3.151288 2.068127 10.262056 7.667960 -12.589728 -1.281786 -8.781797 26.724373 0.642198 -6.408222 -12.931140 -0.013500 0.749100 -2.058700 -5.162141 -0.604840 -1.934601 0.919457 -1.330451 -1.924779 4.775631 -0.166859 -0.890786 -12.268615 -8.734257 -19.269752 6.789998 -9.137092 16.310683 3.298500 -4.460800 12.852400 -10.748818 -0.190531 -1.820335 -76.956303 0.985401 16.480176 10.826887 -21.346573 -2.374134 -0.108383 -1.392350 8.728709 13.473304 20.732165 5.129500 -7.125000 0.000000 0.000000 -15.787100 52.020100 -2.785900 9.528299 1.983779 -1.351752 73.213269 -1.835615 8.696211 -15.713260 22.543712 -4.038248 1.674731 -0.660306 14.380608 -35.972224 -3.867154 2.713700 7.125000 0.000000 0.000000 -9.168600 -34.301700 -2.433200 
